<?xml version="1.0" encoding="utf-8"?>
<svg version="1.1" xmlns:xlink="http://www.w3.org/1999/xlink" width="25px" height="23px" xmlns="http://www.w3.org/2000/svg">
  <g transform="matrix(1 0 0 1 -18 -171 )">
    <path d="M 10.6901041666667 13.8574673480977  C 11.3411458333333 13.2044293015332  11.6666666666667 12.4164300586788  11.6666666666667 11.4934696195344  C 11.6666666666667 10.5705091803899  11.3411458333333 9.78250993753549  10.6901041666667 9.12947189097104  C 10.0390625 8.47643384440659  9.25347222222222 8.14991482112436  8.33333333333333 8.14991482112436  C 7.41319444444444 8.14991482112436  6.62760416666667 8.47643384440659  5.9765625 9.12947189097104  C 5.32552083333333 9.78250993753549  5 10.5705091803899  5 11.4934696195344  C 5 12.4164300586788  5.32552083333333 13.2044293015332  5.9765625 13.8574673480977  C 6.62760416666667 14.5105053946621  7.41319444444444 14.8370244179444  8.33333333333333 14.8370244179444  C 9.25347222222222 14.8370244179444  10.0390625 14.5105053946621  10.6901041666667 13.8574673480977  Z M 21.1783854166667 19.362578080636  C 21.50390625 19.0360590573538  21.6666666666667 18.6420594359266  21.6666666666667 18.1805792163543  C 21.6666666666667 17.7278061707363  21.5017361111111 17.3359833427977  21.171875 17.0051107325383  C 20.8420138888889 16.674238122279  20.4513888888889 16.5088018171493  20 16.5088018171493  C 19.5486111111111 16.5088018171493  19.1579861111111 16.674238122279  18.828125 17.0051107325383  C 18.4982638888889 17.3359833427977  18.3333333333333 17.7278061707363  18.3333333333333 18.1805792163543  C 18.3333333333333 18.6420594359266  18.49609375 19.0360590573538  18.8216145833333 19.362578080636  C 19.1471354166667 19.6890971039182  19.5399305555556 19.8523566155593  20 19.8523566155593  C 20.4600694444444 19.8523566155593  20.8528645833333 19.6890971039182  21.1783854166667 19.362578080636  Z M 21.1783854166667 5.98835888699603  C 21.50390625 5.6618398637138  21.6666666666667 5.26784024228658  21.6666666666667 4.80636002271437  C 21.6666666666667 4.35358697709635  21.5017361111111 3.96176414915767  21.171875 3.63089153889835  C 20.8420138888889 3.30001892863903  20.4513888888889 3.13458262350937  20 3.13458262350937  C 19.5486111111111 3.13458262350937  19.1579861111111 3.30001892863903  18.828125 3.63089153889835  C 18.4982638888889 3.96176414915767  18.3333333333333 4.35358697709635  18.3333333333333 4.80636002271437  C 18.3333333333333 5.26784024228658  18.49609375 5.6618398637138  18.8216145833333 5.98835888699603  C 19.1471354166667 6.31487791027825  19.5399305555556 6.47813742191936  20 6.47813742191936  C 20.4600694444444 6.47813742191936  20.8528645833333 6.31487791027825  21.1783854166667 5.98835888699603  Z M 16.5755208333333 10.0502555366269  C 16.6362847222222 10.1242665152376  16.6666666666667 10.2091614612909  16.6666666666667 10.3049403747871  L 16.6666666666667 12.7211811470755  C 16.6666666666667 12.8082528866175  16.6362847222222 12.8931478326708  16.5755208333333 12.9758659852357  C 16.5147569444444 13.0585841378005  16.4453125 13.10429680106  16.3671875 13.1130039750142  L 14.3489583333333 13.4264622373651  C 14.2534722222222 13.7312133257619  14.1145833333333 14.0620859360212  13.9322916666667 14.4190800681431  C 14.2274305555556 14.8370244179444  14.6180555555556 15.3376869203104  15.1041666666667 15.9210675752413  C 15.1649305555556 16.0168464887375  15.1953125 16.1039182282794  15.1953125 16.1822827938671  C 15.1953125 16.2867688813174  15.1649305555556 16.3694870338823  15.1041666666667 16.4304372515616  C 14.9045138888889 16.6916524701874  14.5464409722222 17.0812985046375  14.0299479166667 17.599375354912  C 13.5134548611111 18.1174522051864  13.1727430555556 18.3764906303237  13.0078125 18.3764906303237  C 12.9123263888889 18.3764906303237  12.8211805555556 18.346015521484  12.734375 18.2850653038047  L 11.2369791666667 17.1095968199886  C 10.9157986111111 17.2750331251183  10.5815972222222 17.4099943214083  10.234375 17.5144804088586  C 10.1388888888889 18.4548551959114  10.0390625 19.1296611773613  9.93489583333333 19.5388983532084  C 9.87413194444444 19.747870528109  9.74392361111111 19.8523566155593  9.54427083333333 19.8523566155593  L 7.12239583333333 19.8523566155593  C 7.02690972222222 19.8523566155593  6.94010416666667 19.8197047132311  6.86197916666667 19.7544009085747  C 6.78385416666667 19.6890971039182  6.74045138888889 19.612909331819  6.73177083333333 19.5258375922771  L 6.43229166666667 17.5275411697899  C 6.13715277777778 17.440469430248  5.81163194444444 17.305508233958  5.45572916666667 17.1226575809199  L 3.91927083333333 18.2850653038047  C 3.85850694444444 18.346015521484  3.77170138888889 18.3764906303237  3.65885416666667 18.3764906303237  C 3.56336805555556 18.3764906303237  3.47222222222222 18.3416619345069  3.38541666666667 18.2720045428734  C 2.13541666666667 17.1139504069657  1.51041666666667 16.4173764906303  1.51041666666667 16.1822827938671  C 1.51041666666667 16.1039182282794  1.54079861111111 16.0212000757146  1.6015625 15.9341283361726  C 1.68836805555556 15.8122279008139  1.86631944444444 15.5814877910278  2.13541666666667 15.2419080068143  C 2.40451388888889 14.9023282226008  2.60850694444445 14.6367594169979  2.74739583333333 14.4452015900057  C 2.54774305555556 14.0620859360212  2.39583333333333 13.7050918038993  2.29166666666667 13.37421919364  L 0.3125 13.060760931289  C 0.225694444444444 13.0520537573348  0.151909722222222 13.0106946810524  0.0911458333333333 12.9366837024418  C 0.0303819444444444 12.8626727238312  0 12.7777777777778  0 12.6819988642817  L 0 10.2657580919932  C 0 10.1786863524513  0.0303819444444444 10.0937914063979  0.0911458333333333 10.011073253833  C 0.151909722222222 9.92835510126822  0.221354166666667 9.88264243800871  0.299479166666667 9.87393526405451  L 2.31770833333333 9.56047700170358  C 2.41319444444444 9.25572591330683  2.55208333333333 8.92485330304751  2.734375 8.56785917092561  C 2.43923611111111 8.14991482112436  2.04861111111111 7.64925231875828  1.5625 7.06587166382737  C 1.50173611111111 6.97009275033125  1.47135416666667 6.88302101078932  1.47135416666667 6.80465644520159  C 1.47135416666667 6.70017035775128  1.50173611111111 6.61309861820935  1.5625 6.54344122657581  C 1.75347222222222 6.28222600795003  2.109375 5.89475676698845  2.63020833333333 5.38103350369108  C 3.15104166666667 4.86731024039371  3.49392361111111 4.61044860874503  3.65885416666667 4.61044860874503  C 3.75434027777778 4.61044860874503  3.84548611111111 4.64092371758471  3.93229166666667 4.70187393526406  L 5.4296875 5.87734241908007  C 5.72482638888889 5.7206132879046  6.05902777777778 5.58129850463752  6.43229166666667 5.45939806927882  C 6.52777777777778 4.51902328222601  6.62760416666667 3.84857088775317  6.73177083333333 3.44804088586031  C 6.79253472222222 3.23906871095968  6.92274305555556 3.13458262350937  7.12239583333333 3.13458262350937  L 9.54427083333333 3.13458262350937  C 9.63975694444445 3.13458262350937  9.7265625 3.16723452583759  9.8046875 3.23253833049404  C 9.8828125 3.29784213515048  9.92621527777778 3.37402990724967  9.93489583333333 3.4611016467916  L 10.234375 5.45939806927882  C 10.5295138888889 5.54646980882074  10.8550347222222 5.68143100511073  11.2109375 5.86428165814878  L 12.7473958333333 4.70187393526406  C 12.8168402777778 4.64092371758471  12.9036458333333 4.61044860874503  13.0078125 4.61044860874503  C 13.1032986111111 4.61044860874503  13.1944444444444 4.6452773045618  13.28125 4.71493469619534  C 14.53125 5.87298883210297  15.15625 6.56956274843839  15.15625 6.80465644520159  C 15.15625 6.87431383683513  15.1258680555556 6.95703198939996  15.0651041666667 7.05281090289608  C 14.9609375 7.19212568616316  14.7786458333333 7.42721938292637  14.5182291666667 7.75809199318569  C 14.2578125 8.08896460344501  14.0625 8.35017982207079  13.9322916666667 8.54173764906303  C 14.1319444444444 8.95968199886428  14.2795138888889 9.31667613098618  14.375 9.61272004542873  L 16.3541666666667 9.91311754684838  C 16.4409722222222 9.93053189475676  16.5147569444444 9.97624455801628  16.5755208333333 10.0502555366269  Z M 23.0598958333333 16.8614423622942  C 24.3532986111111 16.992049971607  25 17.127011167897  25 17.2663259511641  L 25 19.0948324815446  C 25 19.2341472648117  24.3532986111111 19.3691084611016  23.0598958333333 19.4997160704145  C 22.9557291666667 19.7348097671777  22.8255208333333 19.9611962899867  22.6692708333333 20.1788756388416  C 23.1119791666667 21.1627862956653  23.3333333333333 21.7635812985046  23.3333333333333 21.9812606473595  C 23.3333333333333 22.0160893431762  23.3159722222222 22.0465644520159  23.28125 22.0726859738785  C 22.2222222222222 22.6908953246262  21.6840277777778 23  21.6666666666667 23  C 21.5972222222222 23  21.3975694444444 22.7953814120765  21.0677083333333 22.3861442362294  C 20.7378472222222 21.9769070603824  20.5121527777778 21.6808631459398  20.390625 21.4980124929018  C 20.2170138888889 21.5154268408101  20.0868055555556 21.5241340147643  20 21.5241340147643  C 19.9131944444444 21.5241340147643  19.7829861111111 21.5154268408101  19.609375 21.4980124929018  C 19.4878472222222 21.6808631459398  19.2621527777778 21.9769070603824  18.9322916666667 22.3861442362294  C 18.6024305555556 22.7953814120765  18.4027777777778 23  18.3333333333333 23  C 18.3159722222222 23  17.7777777777778 22.6908953246262  16.71875 22.0726859738785  C 16.6840277777778 22.0465644520159  16.6666666666667 22.0160893431762  16.6666666666667 21.9812606473595  C 16.6666666666667 21.7635812985046  16.8880208333333 21.1627862956653  17.3307291666667 20.1788756388416  C 17.1744791666667 19.9611962899867  17.0442708333333 19.7348097671777  16.9401041666667 19.4997160704145  C 15.6467013888889 19.3691084611016  15 19.2341472648117  15 19.0948324815446  L 15 17.2663259511641  C 15 17.127011167897  15.6467013888889 16.992049971607  16.9401041666667 16.8614423622942  C 17.0529513888889 16.6089343176226  17.1831597222222 16.3825477948136  17.3307291666667 16.1822827938671  C 16.8880208333333 15.1983721370433  16.6666666666667 14.597577134204  16.6666666666667 14.3798977853492  C 16.6666666666667 14.3450690895325  16.6840277777778 14.3145939806928  16.71875 14.2884724588302  C 16.7534722222222 14.2710581109218  16.9053819444444 14.1839863713799  17.1744791666667 14.0272572402044  C 17.4435763888889 13.870528109029  17.6996527777778 13.7225061518077  17.9427083333333 13.5831913685406  C 18.1857638888889 13.4438765852735  18.3159722222222 13.37421919364  18.3333333333333 13.37421919364  C 18.4027777777778 13.37421919364  18.6024305555556 13.576660988075  18.9322916666667 13.9815445769449  C 19.2621527777778 14.3864281658149  19.4878472222222 14.6802952867689  19.609375 14.8631459398069  C 19.7829861111111 14.8457315918985  19.9131944444444 14.8370244179444  20 14.8370244179444  C 20.0868055555556 14.8370244179444  20.2170138888889 14.8457315918985  20.390625 14.8631459398069  C 20.8333333333333 14.2449365890592  21.2326388888889 13.7573348476245  21.5885416666667 13.4003407155026  L 21.6666666666667 13.37421919364  C 21.7013888888889 13.37421919364  22.2395833333333 13.6789702820367  23.28125 14.2884724588302  C 23.3159722222222 14.3145939806928  23.3333333333333 14.3450690895325  23.3333333333333 14.3798977853492  C 23.3333333333333 14.597577134204  23.1119791666667 15.1983721370433  22.6692708333333 16.1822827938671  C 22.8168402777778 16.3825477948136  22.9470486111111 16.6089343176226  23.0598958333333 16.8614423622942  Z M 23.0598958333333 3.48722316865417  C 24.3532986111111 3.61783077796706  25 3.75279197425705  25 3.89210675752413  L 25 5.7206132879046  C 25 5.85992807117168  24.3532986111111 5.99488926746167  23.0598958333333 6.12549687677456  C 22.9557291666667 6.36059057353776  22.8255208333333 6.58697709634677  22.6692708333333 6.80465644520159  C 23.1119791666667 7.78856710202536  23.3333333333333 8.38936210486466  23.3333333333333 8.60704145371948  C 23.3333333333333 8.64187014953625  23.3159722222222 8.67234525837592  23.28125 8.6984667802385  C 22.2222222222222 9.31667613098618  21.6840277777778 9.62578080636002  21.6666666666667 9.62578080636002  C 21.5972222222222 9.62578080636002  21.3975694444444 9.42116221843649  21.0677083333333 9.01192504258944  C 20.7378472222222 8.60268786674238  20.5121527777778 8.30664395229983  20.390625 8.12379329926178  C 20.2170138888889 8.14120764717017  20.0868055555556 8.14991482112436  20 8.14991482112436  C 19.9131944444444 8.14991482112436  19.7829861111111 8.14120764717017  19.609375 8.12379329926178  C 19.4878472222222 8.30664395229983  19.2621527777778 8.60268786674238  18.9322916666667 9.01192504258944  C 18.6024305555556 9.42116221843649  18.4027777777778 9.62578080636002  18.3333333333333 9.62578080636002  C 18.3159722222222 9.62578080636002  17.7777777777778 9.31667613098618  16.71875 8.6984667802385  C 16.6840277777778 8.67234525837592  16.6666666666667 8.64187014953625  16.6666666666667 8.60704145371948  C 16.6666666666667 8.38936210486466  16.8880208333333 7.78856710202536  17.3307291666667 6.80465644520159  C 17.1744791666667 6.58697709634677  17.0442708333333 6.36059057353776  16.9401041666667 6.12549687677456  C 15.6467013888889 5.99488926746167  15 5.85992807117168  15 5.7206132879046  L 15 3.89210675752413  C 15 3.75279197425705  15.6467013888889 3.61783077796706  16.9401041666667 3.48722316865417  C 17.0529513888889 3.23471512398258  17.1831597222222 3.00832860117357  17.3307291666667 2.80806360022714  C 16.8880208333333 1.82415294340337  16.6666666666667 1.22335794056407  16.6666666666667 1.00567859170926  C 16.6666666666667 0.970849895892484  16.6840277777778 0.940374787052812  16.71875 0.914253265190234  C 16.7534722222222 0.896838917281845  16.9053819444444 0.809767177739921  17.1744791666667 0.653038046564453  C 17.4435763888889 0.496308915388984  17.6996527777778 0.348286958167705  17.9427083333333 0.208972174900625  C 18.1857638888889 0.0696573916335399  18.3159722222222 0  18.3333333333333 0  C 18.4027777777778 0  18.6024305555556 0.202441794434979  18.9322916666667 0.60732538330494  C 19.2621527777778 1.0122089721749  19.4878472222222 1.30607609312891  19.609375 1.48892674616695  C 19.7829861111111 1.47151239825856  19.9131944444444 1.46280522430437  20 1.46280522430437  C 20.0868055555556 1.46280522430437  20.2170138888889 1.47151239825856  20.390625 1.48892674616695  C 20.8333333333333 0.870717395419267  21.2326388888889 0.383115653984477  21.5885416666667 0.0261215218625781  L 21.6666666666667 0  C 21.7013888888889 0  22.2395833333333 0.304751088396743  23.28125 0.914253265190234  C 23.3159722222222 0.940374787052812  23.3333333333333 0.970849895892484  23.3333333333333 1.00567859170926  C 23.3333333333333 1.22335794056407  23.1119791666667 1.82415294340337  22.6692708333333 2.80806360022714  C 22.8168402777778 3.00832860117357  22.9470486111111 3.23471512398258  23.0598958333333 3.48722316865417  Z " fill-rule="nonzero" fill="#ffffff" stroke="none" transform="matrix(1 0 0 1 18 171 )" />
  </g>
</svg>